PathFileType	4	(X/Y/Z)	C:\Users\Basilio\Documents\Thesis Gigler\squatting_fais\c3dfiles\041\SJ_pre5\markers_experimental.trc
DataRate	CameraRate	NumFrames	NumMarkers	Units	OrigDataRate	OrigDataStartFrame	OrigNumFrames
200.000000	200.000000	4	62	mm	200.000000	1316	1505
Frame#	Time	FHD			LBHD			RBHD			C7			T10			CLAV			LSHO			LUUPA			LMUPA			LDUPA			LLEP			LMEP			LRAD			LUL			LRFIN			RSHO			RUPA1			RMUPA			RDUPA			RLEP			RMEP			RRAD			RUL			RUFIN			LASI			RASI			USACR			LSACR			RSACR			LTHI1			LTHI2			LTHI3			LTHI4			LLFC			LMFC			LTIB1			LTIB2			LTIB3			LTIB4			LLMAL			LMMAL			LHEE			LMT1			LMT2			LMT5			RTHI			RTHI2			RTHI3			RTHI4			RLFC			RMFC			RTIB1			RTIB2			RTIB3			RTIB4			RLMAL			RMMAL			RHEE			RMT1			RMT2			RMT5			*61			
		X1	Y1	Z1	X2	Y2	Z2	X3	Y3	Z3	X4	Y4	Z4	X5	Y5	Z5	X6	Y6	Z6	X7	Y7	Z7	X8	Y8	Z8	X9	Y9	Z9	X10	Y10	Z10	X11	Y11	Z11	X12	Y12	Z12	X13	Y13	Z13	X14	Y14	Z14	X15	Y15	Z15	X16	Y16	Z16	X17	Y17	Z17	X18	Y18	Z18	X19	Y19	Z19	X20	Y20	Z20	X21	Y21	Z21	X22	Y22	Z22	X23	Y23	Z23	X24	Y24	Z24	X25	Y25	Z25	X26	Y26	Z26	X27	Y27	Z27	X28	Y28	Z28	X29	Y29	Z29	X30	Y30	Z30	X31	Y31	Z31	X32	Y32	Z32	X33	Y33	Z33	X34	Y34	Z34	X35	Y35	Z35	X36	Y36	Z36	X37	Y37	Z37	X38	Y38	Z38	X39	Y39	Z39	X40	Y40	Z40	X41	Y41	Z41	X42	Y42	Z42	X43	Y43	Z43	X44	Y44	Z44	X45	Y45	Z45	X46	Y46	Z46	X47	Y47	Z47	X48	Y48	Z48	X49	Y49	Z49	X50	Y50	Z50	X51	Y51	Z51	X52	Y52	Z52	X53	Y53	Z53	X54	Y54	Z54	X55	Y55	Z55	X56	Y56	Z56	X57	Y57	Z57	X58	Y58	Z58	X59	Y59	Z59	X60	Y60	Z60	X61	Y61	Z61	X62	Y62	Z62	

1317	6.58	-260.5771789550782	1756.127807617188	-965.2124023437502	-433.2428588867189	1662.958862304688	-1024.822509765625	-400.9490051269532	1671.290649414063	-874.8917236328127	-457.6163330078126	1522.718505859375	-968.1190185546877	-475.6342163085939	1205.655395507813	-970.692565917969	-299.3118286132813	1466.08935546875	-969.699890136719	-397.2039489746095	1521.034423828125	-1132.135375976563	-460.9934082031251	1387.023681640625	-1269.13818359375	-436.6582336425782	1343.72509765625	-1271.21435546875	-483.9410095214845	1334.635620117188	-1308.838012695313	-494.5610351562501	1288.316650390625	-1332.97021484375	-541.0333862304689	1244.134887695313	-1266.481079101563	-379.7824096679688	1097.198486328125	-1180.671752929688	-363.4085998535157	1061.843994140625	-1244.191772460938	-331.4750061035157	1075.408203125	-1143.010864257813	-383.3984069824219	1517.875732421875	-805.8999023437502	-443.0525817871095	1377.58642578125	-642.8966064453126	-399.3091735839845	1351.775634765625	-647.3037719726564	-423.3299865722657	1320.1357421875	-605.3114624023439	-416.0415649414064	1272.450439453125	-587.0557861328126	-489.4755249023439	1241.8837890625	-637.8723144531251	-383.7063598632813	1078.084594726563	-755.4191894531251	-343.9401245117188	1064.800659179688	-803.0242309570315	-352.2737426757813	1036.772094726563	-698.7412719726564	-297.4759826660157	1014.351745605469	-1078.992431640625	-307.2917785644532	1004.728637695313	-863.223083496094	-480.764862060547	1092.497680664063	-974.8921508789065	-495.4235839843751	1067.452880859375	-1002.730651855469	-501.8495483398439	1067.150756835938	-949.4141845703127	-431.8482360839845	826.4880371093752	-1175.571044921875	-402.1584472656251	747.2032470703126	-1182.52001953125	-354.2847290039063	746.7253417968751	-1172.873168945313	-434.4674377441407	695.5158691406251	-1177.51123046875	-429.3741149902345	515.1129150390626	-1184.735717773438	-415.3963012695314	479.9978637695314	-1071.33984375	-405.3078002929689	318.2754821777344	-1160.905517578125	-457.8641662597657	285.8277282714844	-1226.717651367188	-420.0504760742189	277.8106079101563	-1203.009155273438	-421.7572631835939	195.9130401611329	-1182.884887695313	-486.5151977539064	104.1707000732422	-1231.597534179688	-441.8427734375001	103.9034423828125	-1152.466796875	-541.3113403320314	54.05667877197267	-1196.757568359375	-322.4137268066407	60.36463165283205	-1182.358154296875	-318.8735656738282	59.4032440185547	-1227.448852539063	-360.1602172851563	34.42255783081055	-1281.823120117188	-448.8262939453126	768.3960571289065	-779.8125000000002	-415.8579406738282	711.1691284179689	-770.7991943359377	-382.7814025878907	709.3824462890626	-774.2757568359377	-448.9949951171876	634.0214843750001	-781.935241699219	-456.1079711914064	506.2881774902345	-771.1008300781252	-431.5626831054689	475.284881591797	-884.7106933593752	-421.7283020019532	339.9641723632813	-758.1999511718751	-502.5713500976564	263.4101562500001	-741.3415527343751	-455.7391967773439	262.2010803222657	-737.4081420898439	-430.2351989746095	212.0671386718751	-758.8435058593751	-484.3747863769532	96.0229187011719	-737.9106445312501	-447.6865539550782	102.0879821777344	-813.686462402344	-533.2907714843751	50.53297042846681	-788.5798950195315	-315.8244018554688	52.83602523803712	-768.8386840820315	-320.6838989257813	58.18572235107423	-716.8533935546876	-370.3256530761719	36.37321853637696	-673.0657958984376	-4217.518066406251	853.282409667969	-3944.754638671876	
1318	6.585	-260.7095947265626	1756.112182617188	-965.2630004882815	-433.4489746093751	1662.9775390625	-1024.9482421875	-401.2838439941407	1671.140747070313	-874.7881469726565	-457.7465820312501	1522.715087890625	-968.2331542968752	-475.7129211425782	1205.5830078125	-970.7293090820315	-299.3679809570313	1466.139282226563	-969.8193359375002	-397.3198852539064	1520.959716796875	-1132.248413085938	-461.256561279297	1386.973999023438	-1269.19677734375	-436.8592529296876	1343.676025390625	-1271.18994140625	-484.1076660156251	1334.545166015625	-1308.8955078125	-494.7076721191407	1288.190307617188	-1333.030395507813	-541.1551513671876	1244.040405273438	-1266.471801757813	-379.8670959472657	1097.140380859375	-1180.6396484375	-363.4219970703126	1061.806518554688	-1244.16259765625	-331.4936218261719	1075.378784179688	-1142.998901367188	-383.5424804687501	1517.906982421875	-805.9603271484377	-443.2105102539064	1377.611938476563	-642.9735717773439	-399.4900512695314	1351.813354492188	-647.3760986328126	-423.5650329589845	1320.126220703125	-605.3404541015626	-416.1463317871095	1272.552734375	-587.1790161132814	-489.6210021972657	1241.92724609375	-638.0367431640626	-383.8149414062501	1078.137084960938	-755.4452514648439	-344.0955200195313	1064.84375	-803.0229492187502	-352.3274230957032	1036.858520507813	-698.7019653320314	-297.4665832519532	1014.3740234375	-1078.960571289063	-307.2508239746094	1004.830444335938	-863.1936645507815	-480.7652893066407	1092.431762695313	-974.883972167969	-495.4486083984376	1067.437866210938	-1002.725463867188	-501.8617248535157	1067.075561523438	-949.434020996094	-431.8508911132814	826.4463500976565	-1175.532958984375	-402.0472717285157	747.2279663085939	-1182.542724609375	-354.1801452636719	746.7517700195314	-1172.876098632813	-434.2660522460939	695.4301757812501	-1177.452758789063	-429.1548461914064	515.1390991210939	-1184.740844726563	-415.2873535156251	479.8988647460939	-1071.364624023438	-405.2634277343751	318.2066040039063	-1160.888671875	-457.7596435546876	285.8096008300782	-1226.673461914063	-419.9869689941407	277.7245178222657	-1203.018188476563	-421.7279357910157	195.8882598876954	-1182.763061523438	-486.4960021972657	104.1759490966797	-1231.585571289063	-441.8318176269532	103.8810119628907	-1152.47265625	-541.3217163085939	54.04283523559572	-1196.791015625	-322.3318176269532	60.4014015197754	-1182.406494140625	-318.8581237792969	59.39776992797853	-1227.425048828125	-360.2123107910157	34.51446914672852	-1281.822143554688	-448.7962646484376	768.393249511719	-779.7791137695315	-415.798309326172	711.3272705078126	-770.941833496094	-382.5816650390626	709.6777954101564	-774.1304321289065	-448.9202270507814	633.9975585937501	-781.9446411132815	-456.0435791015626	506.2677307128907	-771.083923339844	-431.5614624023439	475.3061523437501	-884.6585693359377	-421.7284545898439	339.9672241210938	-758.1733398437501	-502.5816955566407	263.3579101562501	-741.3466796875001	-455.7276916503907	262.2072753906251	-737.3745117187501	-430.1763305664064	212.0695495605469	-758.7879638671876	-484.3937988281251	96.02859497070315	-737.9182739257814	-447.6600036621095	102.0929946899414	-813.652526855469	-533.2934570312501	50.53004455566408	-788.5808715820315	-315.7958374023438	52.77231216430665	-768.834655761719	-320.6725158691407	58.1960906982422	-716.8330688476564	-370.3348999023438	36.33198928833009	-673.0625610351564	-4216.559570312501	853.155212402344	-3944.689941406251	
1319	6.59	-260.9755554199219	1756.10546875	-965.3537597656252	-433.5830383300782	1662.997314453125	-1025.086303710938	-401.5833129882814	1671.146728515625	-874.8340454101565	-457.9403076171876	1522.655395507813	-968.3281860351565	-475.7796020507814	1205.576538085938	-970.741394042969	-299.5542297363282	1466.251831054688	-969.966247558594	-397.4303588867189	1520.876708984375	-1132.40576171875	-461.4482727050782	1386.896484375	-1269.279052734375	-436.9796447753907	1343.556030273438	-1271.342895507813	-484.2672424316407	1334.4169921875	-1308.941528320313	-494.8520812988282	1288.059204101563	-1333.06494140625	-541.2711181640626	1243.89111328125	-1266.489990234375	-379.9771728515626	1097.111938476563	-1180.610107421875	-363.5121765136719	1061.779541015625	-1244.1025390625	-331.4941711425782	1075.417236328125	-1142.977783203125	-383.6809387207032	1517.95068359375	-806.0037841796877	-443.5347290039064	1377.557861328125	-643.1179809570314	-399.715789794922	1351.9248046875	-647.4538574218751	-423.8286132812501	1320.21435546875	-605.3526000976564	-416.3713378906251	1272.6103515625	-587.2138671875001	-489.8310546875001	1241.97119140625	-638.0747680664064	-383.9234924316407	1078.1611328125	-755.4332885742189	-344.1077575683594	1064.849731445313	-803.0358886718752	-352.4654235839844	1036.91796875	-698.6942749023439	-297.4378967285157	1014.39697265625	-1078.8603515625	-307.2937011718751	1004.953247070313	-863.1672973632815	-480.8265380859376	1092.404541015625	-974.9329223632815	-495.5444946289064	1067.33837890625	-1002.764221191406	-501.9581604003907	1067.003051757813	-949.4285888671877	-431.8167419433595	826.4406738281252	-1175.495361328125	-401.9131164550782	747.2322387695314	-1182.51953125	-354.1108398437501	746.7844238281251	-1172.832763671875	-434.1654052734376	695.4051513671876	-1177.47802734375	-428.9885559082032	515.0804443359376	-1184.698486328125	-415.183074951172	479.9295043945314	-1071.376342773438	-405.1565551757814	318.2035827636719	-1160.819213867188	-457.7188110351564	285.7763061523438	-1226.683715820313	-419.9531555175782	277.6886596679688	-1202.955688476563	-421.6958618164064	195.8626708984376	-1182.739868164063	-486.4879760742189	104.1631393432617	-1231.5830078125	-441.8641052246095	103.8130950927735	-1152.451171875	-541.2997436523439	54.03989028930665	-1196.776489257813	-322.3486633300782	60.38331222534181	-1182.358032226563	-318.8540954589844	59.398494720459	-1227.427001953125	-360.1747131347657	34.40166854858399	-1281.810791015625	-448.802947998047	768.3775024414065	-779.7246093750002	-415.7623596191407	711.3486328125001	-770.939880371094	-382.5426940917969	709.7017822265626	-774.144470214844	-448.9145812988282	634.0217895507814	-781.9002685546877	-456.0126953125001	506.2546691894532	-771.046081542969	-431.5518798828126	475.2823486328126	-884.658386230469	-421.6854553222657	339.9181823730469	-758.1494140625001	-502.5098266601564	263.3772888183594	-741.3814697265626	-455.7058105468751	262.1979064941407	-737.3508300781251	-430.1849975585939	212.0322570800782	-758.7868652343751	-484.3559570312501	96.01050567626956	-737.9000244140626	-447.6677856445314	102.1176071166992	-813.6621704101565	-533.3190307617189	50.50972366333009	-788.6062622070315	-315.7765502929688	52.77481079101564	-768.824890136719	-320.6882019042969	58.19563293457033	-716.8554687500001	-370.3514099121094	36.36027145385743	-673.0659790039064	-4216.675292968751	853.099304199219	-3944.671630859376	
1320	6.595	-261.3323974609376	1756.173461914063	-965.4682617187502	-433.7413635253907	1662.925903320313	-1025.215576171875	-401.6010131835939	1671.35791015625	-875.231628417969	-458.1646118164064	1522.63818359375	-968.4556274414065	-475.9018859863282	1205.504150390625	-970.7974853515627	-299.7431945800782	1466.215698242188	-970.037536621094	-397.5382080078126	1520.82568359375	-1132.565307617188	-461.5310363769532	1386.811279296875	-1269.315795898438	-437.1409912109376	1343.463134765625	-1271.420654296875	-484.4420166015626	1334.348388671875	-1309.014404296875	-494.9553527832032	1287.932250976563	-1333.093017578125	-541.3982543945314	1243.745239257813	-1266.502807617188	-379.9928894042969	1097.116943359375	-1180.623046875	-363.5587158203126	1061.694091796875	-1244.110229492188	-331.5499267578126	1075.353637695313	-1142.947998046875	-383.8464050292969	1517.940673828125	-806.0592041015627	-443.5108337402345	1377.74560546875	-643.1223144531251	-400.0091552734376	1351.996948242188	-647.5255737304689	-423.9431152343751	1320.236938476563	-605.4623413085939	-416.5606384277345	1272.73046875	-587.2984619140626	-490.0810852050782	1242.031616210938	-638.1276855468751	-384.0230407714845	1078.203735351563	-755.4508056640626	-344.2503662109376	1064.8759765625	-802.9885253906252	-352.5406799316407	1036.969482421875	-698.7007446289064	-297.4540100097657	1014.376708984375	-1078.87158203125	-307.3674621582032	1005.013427734375	-863.117126464844	-480.8882751464845	1092.329833984375	-974.9717407226565	-495.529754638672	1067.302978515625	-1002.775146484375	-502.0791015625001	1066.994750976563	-949.4136352539065	-431.7482910156251	826.378601074219	-1175.488525390625	-401.8133239746095	747.1882324218751	-1182.530883789063	-354.0074462890626	746.7615966796876	-1172.804931640625	-434.0729370117189	695.4306640625001	-1177.540893554688	-428.8570556640626	515.0725708007814	-1184.716918945313	-414.9608764648439	479.8794555664064	-1071.384399414063	-405.1107788085939	318.1727600097657	-1160.729125976563	-457.617645263672	285.7710266113282	-1226.711669921875	-419.8258056640626	277.6141052246094	-1202.904174804688	-421.6742248535157	195.8157348632813	-1182.7060546875	-486.4914550781251	104.1599502563477	-1231.572387695313	-441.876190185547	103.814323425293	-1152.455322265625	-541.3103637695314	54.05677032470705	-1196.740966796875	-322.4365234375001	60.3275833129883	-1182.34375	-318.8888854980469	59.3838233947754	-1227.447021484375	-360.1666870117188	34.49108505249024	-1281.793579101563	-448.8096923828126	768.3814697265627	-779.7010498046877	-415.7800598144532	711.1975708007814	-770.7534790039065	-382.7080993652344	709.3814697265626	-774.2751464843752	-448.8356933593751	634.0167236328126	-781.859802246094	-455.9730529785157	506.2575073242189	-771.0576171875002	-431.460662841797	475.2593994140626	-884.6956787109377	-421.6701965332032	339.9364013671876	-758.1742553710939	-502.4783935546876	263.3434143066407	-741.3618774414064	-455.696258544922	262.1633605957032	-737.3473510742189	-430.1738891601564	212.0407409667969	-758.8675537109376	-484.3496398925782	96.01209259033206	-737.9014892578126	-447.7141723632814	102.1329116821289	-813.6799316406252	-533.2854614257814	50.532772064209	-788.5841064453127	-315.8170166015626	52.82774353027345	-768.8288574218752	-320.7106933593751	58.11145782470705	-716.9621582031251	-370.3746032714844	36.28337860107423	-673.1317749023439	-4217.225585937501	853.185485839844	-3944.682128906251	
